<svg width="40" height="38" viewBox="0 0 40 38" fill="none" xmlns="http://www.w3.org/2000/svg">
<path fill-rule="evenodd" clip-rule="evenodd" d="M6.56571 2.42414C6.85012 1.69644 7.2873 1.08428 7.82832 0.656157C8.36935 0.228035 8.99288 0.000841341 9.62914 0H24.6531C25.29 2.76494e-05 25.9142 0.226838 26.4559 0.655006C26.9976 1.08317 27.4353 1.69578 27.72 2.42414L33.7406 17.8216C34.098 18.7333 34.2846 19.7388 34.2857 20.7587V32.8772C34.2857 34.0398 33.9245 35.1548 33.2815 35.9769C32.6385 36.799 31.7665 37.2608 30.8571 37.2608H3.42857C2.51926 37.2608 1.64719 36.799 1.00421 35.9769C0.361223 35.1548 0 34.0398 0 32.8772V20.7608C0.000320364 19.7405 0.18637 18.7342 0.543428 17.8216L6.56571 2.42414ZM24.6531 4.38363H9.63086L3.63429 19.7263H9.42857C10.1106 19.7263 10.7646 20.0727 11.2468 20.6893C11.7291 21.3058 12 22.1421 12 23.014V25.2058C12 25.4965 12.0903 25.7752 12.251 25.9808C12.4118 26.1863 12.6298 26.3018 12.8571 26.3018H21.4286C21.6559 26.3018 21.8739 26.1863 22.0347 25.9808C22.1954 25.7752 22.2857 25.4965 22.2857 25.2058V23.014C22.2857 22.1421 22.5566 21.3058 23.0389 20.6893C23.5211 20.0727 24.1752 19.7263 24.8571 19.7263H30.6514L24.6531 4.38363Z" fill="#FAF7F0"/>
<ellipse cx="32.8567" cy="28.9524" rx="7.14286" ry="9.04762" fill="#FB1A1A"/>
</svg>
