<svg width="40" height="40" viewBox="0 0 40 40" fill="none" xmlns="http://www.w3.org/2000/svg">
<path fill-rule="evenodd" clip-rule="evenodd" d="M20 0C8.954 0 0 7.88103 0 17.6034C0 27.3257 8.954 35.2068 20 35.2068C31.046 35.2068 40 27.3257 40 17.6034C40 7.88103 31.046 0 20 0ZM20 1.76034C20 5.96217 18.1036 9.99191 14.7279 12.9631C11.3523 15.9342 6.7739 17.6034 2 17.6034C6.7739 17.6034 11.3523 19.2725 14.7279 22.2437C18.1036 25.2148 20 29.2446 20 33.4464C20 29.2446 21.8964 25.2148 25.2721 22.2437C28.6477 19.2725 33.2261 17.6034 38 17.6034C33.2261 17.6034 28.6477 15.9342 25.2721 12.9631C21.8964 9.99191 20 5.96217 20 1.76034Z" fill="#FAF7F0"/>
<ellipse cx="31.6663" cy="32" rx="8.33333" ry="8" fill="#FB1A1A"/>
</svg>
