<svg width="300" height="227" viewBox="0 0 300 227" fill="none" xmlns="http://www.w3.org/2000/svg">
<path d="M170.379 185.872C170.489 186.691 169.771 187.429 168.775 187.519C167.78 187.609 166.884 187.018 166.775 186.199C165.978 180.432 165.778 175.655 166.294 172.079C166.867 168.108 168.377 165.456 170.976 164.358C172.792 163.59 176.091 163.592 179.857 163.937C183.346 164.257 187.354 164.866 190.844 165.4C194.729 165.995 197.809 166.057 200.127 165.161C202.36 164.298 204.048 162.439 205.291 159.151C205.864 157.635 205.91 156.137 205.958 154.531C205.995 153.329 206.032 152.073 206.264 150.679C206.528 149.079 207.845 148.157 209.139 147.251C209.174 147.226 209.21 147.203 209.247 147.181C210.055 146.615 210.804 146.061 210.582 145.553C210.439 145.225 210.008 144.814 209.26 144.377C208.484 143.923 207.431 143.495 206.083 143.156C205.127 142.917 204.588 142.085 204.877 141.298C205.111 140.663 205.814 140.25 206.58 140.241C209.814 140.194 211.461 139.614 212.284 138.957C212.903 138.463 212.989 137.943 212.989 137.695C212.99 137.195 212.455 136.781 211.931 136.376C210.728 135.445 209.551 134.534 209.877 132.532C210.093 131.203 210.987 130.114 212.632 129.197C213.965 128.455 215.842 127.817 218.322 127.234C220.172 126.593 221.153 126.075 221.341 125.581C221.506 125.149 221.031 124.423 219.983 123.329C219.955 123.3 219.928 123.27 219.904 123.239L217.918 121.186C215.241 118.42 212.04 115.112 208.293 110.904C207.272 109.758 205.985 108.086 205.003 106.414C204.211 105.067 203.604 103.691 203.451 102.519C203.174 100.411 203.724 97.9297 204.327 95.2138C204.991 92.2193 205.722 88.9178 205.355 85.8103C204.569 79.1755 202.643 73.2767 199.791 68.1263C194.529 58.6249 186.099 51.6589 175.848 47.322C165.55 42.9661 153.398 41.2487 140.745 42.2647C132.167 42.9537 123.361 44.9005 114.748 48.1343C101.677 53.0417 92.1614 60.0816 86.202 69.2536C80.2271 78.4485 77.787 89.8328 78.8804 103.404C81.2825 113.651 86.3802 120.836 91.3806 127.884C96.9773 135.771 102.457 143.492 104.192 155.135C104.863 159.634 105.085 164.398 104.874 169.36C104.661 174.354 104.008 179.519 102.932 184.786C102.767 185.599 101.833 186.148 100.846 186.012C99.8586 185.877 99.1913 185.108 99.356 184.295C100.411 179.133 101.049 174.1 101.255 169.266C101.459 164.49 101.241 159.878 100.588 155.498C98.9438 144.469 93.6509 137.009 88.2446 129.391C83.0835 122.118 77.8217 114.702 75.3054 103.91C75.2871 103.839 75.2751 103.768 75.2688 103.694C74.1113 89.5227 76.6917 77.5744 83.0092 67.8515C89.3552 58.0848 99.4336 50.6088 113.244 45.4237C122.23 42.0504 131.43 40.0181 140.404 39.2974C153.735 38.2271 166.575 40.0518 177.494 44.6699C188.458 49.3079 197.467 56.7484 203.083 66.8879C206.099 72.333 208.132 78.5528 208.959 85.5297C209.374 89.0371 208.594 92.5518 207.888 95.7394C207.336 98.2284 206.832 100.503 207.055 102.204C207.159 103.001 207.636 104.044 208.266 105.117C209.144 106.611 210.299 108.109 211.217 109.14C214.902 113.28 218.09 116.574 220.755 119.328C221.187 119.774 221.616 120.218 222.74 121.392C222.773 121.421 222.805 121.451 222.835 121.483C224.665 123.394 225.383 124.952 224.804 126.47C224.252 127.916 222.581 129.007 219.621 130.023C219.554 130.046 219.486 130.065 219.416 130.081C217.261 130.584 215.691 131.101 214.662 131.674C213.924 132.085 213.537 132.49 213.467 132.917C213.387 133.408 213.895 133.801 214.415 134.202C215.501 135.043 216.61 135.901 216.608 137.695C216.607 138.393 216.389 139.836 214.811 141.095C214.176 141.601 213.313 142.079 212.14 142.453C213.073 143.129 213.686 143.858 213.988 144.549C215.045 146.963 213.363 148.204 211.589 149.447C211.554 149.476 211.519 149.503 211.481 149.529C210.712 150.067 209.93 150.615 209.854 151.076C209.646 152.334 209.61 153.493 209.577 154.601C209.521 156.435 209.469 158.146 208.754 160.039C207.18 164.2 204.854 166.625 201.66 167.86C198.549 169.062 194.785 169.036 190.193 168.333C186.791 167.813 182.885 167.219 179.46 166.905C176.313 166.617 173.698 166.555 172.622 167.01C171.208 167.608 170.325 169.477 169.898 172.43C169.416 175.778 169.613 180.329 170.379 185.872Z" fill="url(#paint0_linear_122_95)"/>
<rect x="136.5" y="64.5" width="26" height="26" stroke="white"/>
<rect x="143.288" y="71.4536" width="12.5894" height="12.0927" stroke="white"/>
<line x1="162" y1="71.5" x2="223" y2="71.5" stroke="url(#paint1_linear_122_95)"/>
<circle cx="225.5" cy="71.5" r="2.5" fill="#D3A4D5"/>
<line x1="143" y1="74.5" x2="69.0606" y2="74.5" stroke="url(#paint2_linear_122_95)"/>
<ellipse cx="66.0302" cy="74.5" rx="3.0303" ry="2.5" transform="rotate(-180 66.0302 74.5)" fill="#D3A4D5"/>
<line x1="137" y1="79.5" x2="90.7879" y2="79.5" stroke="url(#paint3_linear_122_95)"/>
<ellipse cx="88.8939" cy="79.5" rx="1.89394" ry="2.5" transform="rotate(-180 88.8939 79.5)" fill="#D3A4D5"/>
<line y1="-0.5" x2="41.5909" y2="-0.5" transform="matrix(1 0 0 -1 156 81)" stroke="url(#paint4_linear_122_95)"/>
<ellipse cx="1.70455" cy="2.5" rx="1.70455" ry="2.5" transform="matrix(1 0 0 -1 197.591 84)" fill="#D3A4D5"/>
<line x1="147" y1="91.5" x2="73.0606" y2="91.5" stroke="url(#paint5_linear_122_95)"/>
<ellipse cx="70.0302" cy="91.5" rx="3.0303" ry="2.5" transform="rotate(-180 70.0302 91.5)" fill="#D3A4D5"/>
<line x1="146.5" y1="84" x2="146.5" y2="91" stroke="url(#paint6_linear_122_95)"/>
<line x1="140" y1="57.5" x2="213.939" y2="57.5" stroke="url(#paint7_linear_122_95)"/>
<ellipse cx="216.97" cy="57.5" rx="3.0303" ry="2.5" fill="#D3A4D5"/>
<line x1="140.5" y1="65" x2="140.5" y2="58" stroke="url(#paint8_linear_122_95)"/>
<line y1="-0.5" x2="73.9394" y2="-0.5" transform="matrix(1 0 0 -1 153 97)" stroke="url(#paint9_linear_122_95)"/>
<ellipse cx="3.0303" cy="2.5" rx="3.0303" ry="2.5" transform="matrix(1 0 0 -1 226.939 100)" fill="#D3A4D5"/>
<line y1="-0.5" x2="7" y2="-0.5" transform="matrix(0 1 1 0 154 90)" stroke="url(#paint10_linear_122_95)"/>
<line y1="-0.5" x2="73.9394" y2="-0.5" transform="matrix(-1 0 0 1 154 64)" stroke="url(#paint11_linear_122_95)"/>
<ellipse cx="3.0303" cy="2.5" rx="3.0303" ry="2.5" transform="matrix(-1 0 0 1 80.0605 61)" fill="#D3A4D5"/>
<line y1="-0.5" x2="7" y2="-0.5" transform="matrix(0 -1 -1 0 153 71)" stroke="url(#paint12_linear_122_95)"/>
<defs>
<linearGradient id="paint0_linear_122_95" x1="150" y1="39" x2="150" y2="187.528" gradientUnits="userSpaceOnUse">
<stop stop-color="#D3A4D5"/>
<stop offset="1" stop-color="#9DEFFC"/>
</linearGradient>
<linearGradient id="paint1_linear_122_95" x1="162" y1="72.5" x2="223" y2="72.5" gradientUnits="userSpaceOnUse">
<stop stop-color="#9DEFFC"/>
<stop offset="1" stop-color="#D3A4D5"/>
</linearGradient>
<linearGradient id="paint2_linear_122_95" x1="143" y1="73.5" x2="69.0606" y2="73.5" gradientUnits="userSpaceOnUse">
<stop stop-color="#9DEFFC"/>
<stop offset="1" stop-color="#D3A4D5"/>
</linearGradient>
<linearGradient id="paint3_linear_122_95" x1="137" y1="78.5" x2="90.7879" y2="78.5" gradientUnits="userSpaceOnUse">
<stop stop-color="#9DEFFC"/>
<stop offset="1" stop-color="#D3A4D5"/>
</linearGradient>
<linearGradient id="paint4_linear_122_95" x1="0" y1="0.5" x2="41.5909" y2="0.5" gradientUnits="userSpaceOnUse">
<stop stop-color="#9DEFFC"/>
<stop offset="1" stop-color="#D3A4D5"/>
</linearGradient>
<linearGradient id="paint5_linear_122_95" x1="147" y1="90.5" x2="73.0606" y2="90.5" gradientUnits="userSpaceOnUse">
<stop stop-color="#9DEFFC"/>
<stop offset="1" stop-color="#D3A4D5"/>
</linearGradient>
<linearGradient id="paint6_linear_122_95" x1="145.5" y1="84" x2="145.5" y2="91" gradientUnits="userSpaceOnUse">
<stop stop-color="#D3A4D5"/>
<stop offset="1" stop-color="#9DEFFC"/>
</linearGradient>
<linearGradient id="paint7_linear_122_95" x1="140" y1="58.5" x2="213.939" y2="58.5" gradientUnits="userSpaceOnUse">
<stop stop-color="#9DEFFC"/>
<stop offset="1" stop-color="#D3A4D5"/>
</linearGradient>
<linearGradient id="paint8_linear_122_95" x1="141.5" y1="65" x2="141.5" y2="58" gradientUnits="userSpaceOnUse">
<stop stop-color="#D3A4D5"/>
<stop offset="1" stop-color="#9DEFFC"/>
</linearGradient>
<linearGradient id="paint9_linear_122_95" x1="0" y1="0.5" x2="73.9394" y2="0.5" gradientUnits="userSpaceOnUse">
<stop stop-color="#9DEFFC"/>
<stop offset="1" stop-color="#D3A4D5"/>
</linearGradient>
<linearGradient id="paint10_linear_122_95" x1="0" y1="0.5" x2="7" y2="0.5" gradientUnits="userSpaceOnUse">
<stop stop-color="#D3A4D5"/>
<stop offset="1" stop-color="#9DEFFC"/>
</linearGradient>
<linearGradient id="paint11_linear_122_95" x1="0" y1="0.5" x2="73.9394" y2="0.5" gradientUnits="userSpaceOnUse">
<stop stop-color="#9DEFFC"/>
<stop offset="1" stop-color="#D3A4D5"/>
</linearGradient>
<linearGradient id="paint12_linear_122_95" x1="0" y1="0.5" x2="7" y2="0.5" gradientUnits="userSpaceOnUse">
<stop stop-color="#D3A4D5"/>
<stop offset="1" stop-color="#9DEFFC"/>
</linearGradient>
</defs>
</svg>
