<svg width="402" height="293" viewBox="0 0 402 280" fill="none" xmlns="http://www.w3.org/2000/svg">
<rect width="402" height="293" fill="#191B2B"/>
<rect x="112" y="51.5747" width="178.995" height="178.995" rx="19" stroke="url(#paint0_linear_168_36)" stroke-width="2"/>
<path d="M310 68.6742C310 85.6151 296.267 99.3484 279.326 99.3484C262.385 99.3484 248.652 85.6151 248.652 68.6742C248.652 51.7333 262.385 38 279.326 38C296.267 38 310 51.7333 310 68.6742Z" fill="#191B2B" stroke="url(#paint1_linear_168_36)" stroke-width="2"/>
<line x1="134.528" y1="106.136" x2="266.658" y2="106.136" stroke="url(#paint2_linear_168_36)" stroke-width="2"/>
<line x1="134.528" y1="120.615" x2="266.658" y2="120.615" stroke="url(#paint3_linear_168_36)" stroke-width="2"/>
<line x1="134.528" y1="135.095" x2="266.658" y2="135.095" stroke="url(#paint4_linear_168_36)" stroke-width="2"/>
<line x1="134.528" y1="149.575" x2="266.658" y2="149.575" stroke="url(#paint5_linear_168_36)" stroke-width="2"/>
<line x1="134.528" y1="164.054" x2="266.658" y2="164.054" stroke="url(#paint6_linear_168_36)" stroke-width="2"/>
<line x1="134.528" y1="178.534" x2="266.658" y2="178.534" stroke="url(#paint7_linear_168_36)" stroke-width="2"/>
<line x1="134.528" y1="193.014" x2="266.658" y2="193.014" stroke="url(#paint8_linear_168_36)" stroke-width="2"/>
<path d="M300 57.3333L272 85.3333L259.167 72.5L262.457 69.21L272 78.73L296.71 54.0433L300 57.3333Z" fill="url(#paint9_linear_168_36)"/>
<defs>
<linearGradient id="paint0_linear_168_36" x1="201.498" y1="50.5747" x2="201.498" y2="231.57" gradientUnits="userSpaceOnUse">
<stop stop-color="#D3A4D5"/>
<stop offset="1" stop-color="#9DEFFC"/>
</linearGradient>
<linearGradient id="paint1_linear_168_36" x1="279.326" y1="37" x2="279.326" y2="100.348" gradientUnits="userSpaceOnUse">
<stop stop-color="#D3A4D5"/>
<stop offset="1" stop-color="#9DEFFC"/>
</linearGradient>
<linearGradient id="paint2_linear_168_36" x1="134.528" y1="107.636" x2="266.658" y2="107.636" gradientUnits="userSpaceOnUse">
<stop stop-color="#FFAC75"/>
<stop offset="1" stop-color="#72A1E1"/>
</linearGradient>
<linearGradient id="paint3_linear_168_36" x1="134.528" y1="122.115" x2="266.658" y2="122.115" gradientUnits="userSpaceOnUse">
<stop stop-color="#FFAC75"/>
<stop offset="1" stop-color="#72A1E1"/>
</linearGradient>
<linearGradient id="paint4_linear_168_36" x1="134.528" y1="136.595" x2="266.658" y2="136.595" gradientUnits="userSpaceOnUse">
<stop stop-color="#FFAC75"/>
<stop offset="1" stop-color="#72A1E1"/>
</linearGradient>
<linearGradient id="paint5_linear_168_36" x1="134.528" y1="151.075" x2="266.658" y2="151.075" gradientUnits="userSpaceOnUse">
<stop stop-color="#FFAC75"/>
<stop offset="1" stop-color="#72A1E1"/>
</linearGradient>
<linearGradient id="paint6_linear_168_36" x1="134.528" y1="165.554" x2="266.658" y2="165.554" gradientUnits="userSpaceOnUse">
<stop stop-color="#FFAC75"/>
<stop offset="1" stop-color="#72A1E1"/>
</linearGradient>
<linearGradient id="paint7_linear_168_36" x1="134.528" y1="180.034" x2="266.658" y2="180.034" gradientUnits="userSpaceOnUse">
<stop stop-color="#FFAC75"/>
<stop offset="1" stop-color="#72A1E1"/>
</linearGradient>
<linearGradient id="paint8_linear_168_36" x1="134.528" y1="194.514" x2="266.658" y2="194.514" gradientUnits="userSpaceOnUse">
<stop stop-color="#FFAC75"/>
<stop offset="1" stop-color="#72A1E1"/>
</linearGradient>
<linearGradient id="paint9_linear_168_36" x1="270" y1="70" x2="274" y2="91" gradientUnits="userSpaceOnUse">
<stop stop-color="#65A8E7"/>
<stop offset="1" stop-color="#E6E6E6"/>
</linearGradient>
</defs>
</svg>
