<svg width="300" height="227" viewBox="0 0 300 227" fill="none" xmlns="http://www.w3.org/2000/svg">
<mask id="path-1-outside-1_103_19" maskUnits="userSpaceOnUse" x="134.145" y="69" width="118" height="88" fill="black">
<rect fill="white" x="134.145" y="69" width="118" height="88"/>
<path fill-rule="evenodd" clip-rule="evenodd" d="M201.505 88.1527C206.662 88.1527 210.842 82.3958 210.842 75.2943C210.842 73.407 210.547 71.6146 210.016 70H250.999V108.22C249.367 106.294 247.246 105.131 244.928 105.131C239.772 105.131 235.591 110.887 235.591 117.989C235.591 125.09 239.772 130.847 244.928 130.847C247.246 130.847 249.367 129.684 250.999 127.758V155.362H152.211V124.188C151.241 124.365 150.234 124.459 149.2 124.459C141.438 124.459 135.145 119.186 135.145 112.681C135.145 106.176 141.438 100.903 149.2 100.903C150.234 100.903 151.241 100.997 152.211 101.174V70H192.994C192.464 71.6146 192.168 73.407 192.168 75.2943C192.168 82.3958 196.349 88.1527 201.505 88.1527Z"/>
</mask>
<path fill-rule="evenodd" clip-rule="evenodd" d="M201.505 88.1527C206.662 88.1527 210.842 82.3958 210.842 75.2943C210.842 73.407 210.547 71.6146 210.016 70H250.999V108.22C249.367 106.294 247.246 105.131 244.928 105.131C239.772 105.131 235.591 110.887 235.591 117.989C235.591 125.09 239.772 130.847 244.928 130.847C247.246 130.847 249.367 129.684 250.999 127.758V155.362H152.211V124.188C151.241 124.365 150.234 124.459 149.2 124.459C141.438 124.459 135.145 119.186 135.145 112.681C135.145 106.176 141.438 100.903 149.2 100.903C150.234 100.903 151.241 100.997 152.211 101.174V70H192.994C192.464 71.6146 192.168 73.407 192.168 75.2943C192.168 82.3958 196.349 88.1527 201.505 88.1527Z" fill="#8A8589" fill-opacity="0.3"/>
<path d="M210.016 70V69H208.635L209.066 70.3121L210.016 70ZM250.999 70H251.999V69H250.999V70ZM250.999 108.22L250.237 108.867L251.999 110.947V108.22H250.999ZM250.999 127.758H251.999V125.031L250.237 127.111L250.999 127.758ZM250.999 155.362V156.362H251.999V155.362H250.999ZM152.211 155.362H151.211V156.362H152.211V155.362ZM152.211 124.188H153.211V122.988L152.031 123.204L152.211 124.188ZM152.211 101.174L152.031 102.158L153.211 102.373V101.174H152.211ZM152.211 70V69H151.211V70H152.211ZM192.994 70L193.944 70.3121L194.375 69H192.994V70ZM209.842 75.2943C209.842 78.657 208.851 81.6606 207.298 83.799C205.744 85.9384 203.684 87.1527 201.505 87.1527V89.1527C204.483 89.1527 207.091 87.4885 208.916 84.9741C210.743 82.4587 211.842 79.0331 211.842 75.2943H209.842ZM209.066 70.3121C209.563 71.8236 209.842 73.5105 209.842 75.2943H211.842C211.842 73.3034 211.53 71.4055 210.966 69.6879L209.066 70.3121ZM250.999 69H210.016V71H250.999V69ZM251.999 108.22V70H249.999V108.22H251.999ZM244.928 106.131C246.889 106.131 248.749 107.112 250.237 108.867L251.762 107.574C249.985 105.476 247.603 104.131 244.928 104.131V106.131ZM236.591 117.989C236.591 114.626 237.582 111.623 239.135 109.484C240.689 107.345 242.749 106.131 244.928 106.131V104.131C241.95 104.131 239.343 105.795 237.517 108.309C235.69 110.825 234.591 114.25 234.591 117.989H236.591ZM244.928 129.847C242.749 129.847 240.689 128.633 239.135 126.494C237.582 124.355 236.591 121.352 236.591 117.989H234.591C234.591 121.728 235.69 125.153 237.517 127.669C239.343 130.183 241.95 131.847 244.928 131.847V129.847ZM250.237 127.111C248.749 128.866 246.889 129.847 244.928 129.847V131.847C247.603 131.847 249.985 130.502 251.762 128.404L250.237 127.111ZM251.999 155.362V127.758H249.999V155.362H251.999ZM152.211 156.362H250.999V154.362H152.211V156.362ZM151.211 124.188V155.362H153.211V124.188H151.211ZM152.031 123.204C151.121 123.371 150.173 123.459 149.2 123.459V125.459C150.294 125.459 151.362 125.36 152.391 125.172L152.031 123.204ZM149.2 123.459C141.817 123.459 136.145 118.475 136.145 112.681H134.145C134.145 119.896 141.058 125.459 149.2 125.459V123.459ZM136.145 112.681C136.145 106.887 141.817 101.903 149.2 101.903V99.9031C141.058 99.9031 134.145 105.466 134.145 112.681H136.145ZM149.2 101.903C150.173 101.903 151.121 101.991 152.031 102.158L152.391 100.19C151.362 100.002 150.294 99.9031 149.2 99.9031V101.903ZM151.211 70V101.174H153.211V70H151.211ZM192.994 69H152.211V71H192.994V69ZM193.168 75.2943C193.168 73.5105 193.448 71.8236 193.944 70.3121L192.044 69.6879C191.48 71.4055 191.168 73.3034 191.168 75.2943H193.168ZM201.505 87.1527C199.326 87.1527 197.266 85.9384 195.712 83.799C194.16 81.6606 193.168 78.657 193.168 75.2943H191.168C191.168 79.0331 192.267 82.4587 194.094 84.9741C195.92 87.4885 198.527 89.1527 201.505 89.1527V87.1527Z" fill="url(#paint0_linear_103_19)" mask="url(#path-1-outside-1_103_19)"/>
<mask id="path-3-outside-2_103_19" maskUnits="userSpaceOnUse" x="43" y="69" width="101" height="88" fill="black">
<rect fill="white" x="43" y="69" width="101" height="88"/>
<path fill-rule="evenodd" clip-rule="evenodd" d="M142.788 70H44V155.362H142.788V126.617C142.348 126.69 141.884 126.728 141.396 126.728C134.798 126.728 126.337 119.783 126.337 112.681C126.337 105.58 134.798 98.5263 141.396 98.5263C141.884 98.5263 142.348 98.5648 142.788 98.639V70Z"/>
</mask>
<path fill-rule="evenodd" clip-rule="evenodd" d="M142.788 70H44V155.362H142.788V126.617C142.348 126.69 141.884 126.728 141.396 126.728C134.798 126.728 126.337 119.783 126.337 112.681C126.337 105.58 134.798 98.5263 141.396 98.5263C141.884 98.5263 142.348 98.5648 142.788 98.639V70Z" fill="#8A8589" fill-opacity="0.3"/>
<path d="M44 70V69H43V70H44ZM142.788 70H143.788V69H142.788V70ZM44 155.362H43V156.362H44V155.362ZM142.788 155.362V156.362H143.788V155.362H142.788ZM142.788 126.617H143.788V125.438L142.625 125.631L142.788 126.617ZM142.788 98.639L142.622 99.6251L143.788 99.8214V98.639H142.788ZM44 71H142.788V69H44V71ZM45 155.362V70H43V155.362H45ZM142.788 154.362H44V156.362H142.788V154.362ZM141.788 126.617V155.362H143.788V126.617H141.788ZM142.625 125.631C142.241 125.694 141.832 125.728 141.396 125.728V127.728C141.936 127.728 142.454 127.686 142.952 127.604L142.625 125.631ZM141.396 125.728C138.413 125.728 134.875 124.136 132.058 121.622C129.24 119.107 127.337 115.845 127.337 112.681H125.337C125.337 116.619 127.664 120.381 130.727 123.114C133.79 125.848 137.782 127.728 141.396 127.728V125.728ZM127.337 112.681C127.337 109.516 129.242 106.226 132.062 103.683C134.881 101.142 138.417 99.5263 141.396 99.5263V97.5263C137.777 97.5263 133.784 99.4376 130.723 102.198C127.662 104.958 125.337 108.745 125.337 112.681H127.337ZM141.396 99.5263C141.831 99.5263 142.239 99.5606 142.622 99.6251L142.954 97.6528C142.456 97.569 141.937 97.5263 141.396 97.5263V99.5263ZM141.788 70V98.639H143.788V70H141.788Z" fill="url(#paint1_linear_103_19)" mask="url(#path-3-outside-2_103_19)"/>
<defs>
<linearGradient id="paint0_linear_103_19" x1="193.072" y1="70" x2="193.072" y2="155.362" gradientUnits="userSpaceOnUse">
<stop stop-color="#D3A4D5"/>
<stop offset="1" stop-color="#72A1E1"/>
</linearGradient>
<linearGradient id="paint1_linear_103_19" x1="94.0105" y1="70" x2="94.0105" y2="155.362" gradientUnits="userSpaceOnUse">
<stop stop-color="#FFAC75"/>
<stop offset="1" stop-color="#75A0DD"/>
</linearGradient>
</defs>
</svg>
